<svg width="14" height="14" viewBox="0 0 14 14" fill="none" xmlns="http://www.w3.org/2000/svg">
<path d="M13.1113 5.65181L12.7873 5.08579C12.7727 5.06084 12.7489 5.04267 12.721 5.03524C12.693 5.02781 12.6633 5.03173 12.6383 5.04614L11.9451 5.45083L10.8746 2.49497C10.8181 2.3186 10.707 2.16475 10.5573 2.05564C10.4077 1.94653 10.2272 1.8878 10.042 1.88794H4.11796C3.64354 1.88794 3.22245 2.19419 3.07616 2.64673L2.05624 5.4522L1.36171 5.04751C1.33667 5.0331 1.30694 5.02918 1.27902 5.0366C1.2511 5.04403 1.22725 5.06221 1.21268 5.08716L0.888659 5.65181C0.858581 5.70376 0.876354 5.76939 0.928307 5.79946L1.75409 6.28071L1.55585 6.82759C1.53944 6.87134 1.53124 6.91782 1.53124 6.96431V11.7249C1.53124 11.9395 1.69257 12.1131 1.89081 12.1131H2.81503C2.98319 12.1131 3.12948 11.986 3.16503 11.8083L3.2703 11.2928H10.7297L10.8349 11.8083C10.8719 11.986 11.0168 12.1131 11.1849 12.1131H12.1092C12.3074 12.1131 12.4687 11.9395 12.4687 11.7249V6.96431C12.4687 6.91782 12.4605 6.87134 12.4441 6.82759L12.2459 6.28071L13.0703 5.79946C13.0951 5.78513 13.1133 5.76163 13.121 5.73402C13.1287 5.70641 13.1252 5.67689 13.1113 5.65181ZM3.60936 8.49009C3.30721 8.49009 3.06249 8.24536 3.06249 7.94321C3.06249 7.64107 3.30721 7.39634 3.60936 7.39634C3.91151 7.39634 4.15624 7.64107 4.15624 7.94321C4.15624 8.24536 3.91151 8.49009 3.60936 8.49009ZM8.91405 9.51548C8.91405 9.57564 8.86483 9.62486 8.80467 9.62486H5.1953C5.13514 9.62486 5.08592 9.57564 5.08592 9.51548V8.36704C5.08592 8.30689 5.13514 8.25767 5.1953 8.25767H5.74217C5.80233 8.25767 5.85155 8.30689 5.85155 8.36704V8.85923H8.14842V8.36704C8.14842 8.30689 8.19764 8.25767 8.2578 8.25767H8.80467C8.86483 8.25767 8.91405 8.30689 8.91405 8.36704V9.51548ZM10.3906 8.49009C10.0885 8.49009 9.84374 8.24536 9.84374 7.94321C9.84374 7.64107 10.0885 7.39634 10.3906 7.39634C10.6928 7.39634 10.9375 7.64107 10.9375 7.94321C10.9375 8.24536 10.6928 8.49009 10.3906 8.49009ZM3.0078 5.7147L4.00174 2.98169L4.00858 2.96392L4.01405 2.94614C4.02909 2.90103 4.0701 2.87095 4.11796 2.87095H9.96405L10.9949 5.7147H3.0078Z" fill="black" fill-opacity="0.45"/>
</svg>
