<svg width="20" height="18" viewBox="0 0 20 18" fill="none" xmlns="http://www.w3.org/2000/svg">
<path d="M1 1H1.60632C2.62694 1 3.48384 1.7685 3.59452 2.78311L4.40548 10.2169C4.51616 11.2315 5.37306 12 6.39368 12H15.046C15.9602 12 16.7581 11.3801 16.984 10.4942L18.3639 5.08311C18.6864 3.81854 17.731 2.58889 16.426 2.58889H4.6M4.62476 15.6249H5.37476M4.62476 16.3749H5.37476M15.6248 15.6249H16.3748M15.6248 16.3749H16.3748M6 16C6 16.5523 5.55229 17 5 17C4.44772 17 4 16.5523 4 16C4 15.4477 4.44772 15 5 15C5.55229 15 6 15.4477 6 16ZM17 16C17 16.5523 16.5523 17 16 17C15.4477 17 15 16.5523 15 16C15 15.4477 15.4477 15 16 15C16.5523 15 17 15.4477 17 16Z" stroke="white" stroke-width="2" stroke-linecap="round"/>
</svg>
