<svg width="85" height="85" viewBox="0 0 85 85" fill="none" xmlns="http://www.w3.org/2000/svg">
<g clip-path="url(#clip0_128_54)">
<path d="M70.762 46.276C70.8776 46.1604 70.9694 46.0232 71.0319 45.8721C71.0945 45.721 71.1267 45.5591 71.1267 45.3956C71.1267 45.2321 71.0944 45.0702 71.0318 44.9191C70.9692 44.7681 70.8775 44.6308 70.7618 44.5153C70.5283 44.2818 70.2116 44.1507 69.8814 44.1507C69.5512 44.1507 69.2346 44.2819 69.0011 44.5154C68.4041 45.1124 67.6085 45.4413 66.761 45.4413C65.9133 45.4413 65.1178 45.1124 64.5208 44.5154C64.2873 44.2819 63.9707 44.1507 63.6405 44.1507C63.3103 44.1507 62.9936 44.2818 62.76 44.5153C62.6444 44.6308 62.5526 44.7681 62.49 44.9191C62.4274 45.0702 62.3952 45.2321 62.3952 45.3956C62.3952 45.5591 62.4274 45.721 62.49 45.8721C62.5525 46.0232 62.6443 46.1604 62.7599 46.276C63.8274 47.3435 65.2481 47.9315 66.7612 47.9315C68.2738 47.9315 69.6947 47.3435 70.762 46.276ZM83.7549 82.5098H76.4348V73.4327H78.2712C81.9272 73.4327 84.9017 70.4582 84.9017 66.8022C84.9017 63.1462 81.9272 60.1717 78.2712 60.1717H69.2322C68.5444 60.1717 67.9871 60.729 67.9871 61.4168C67.9871 62.1046 68.5444 62.6619 69.2322 62.6619H78.2712C80.5543 62.6619 82.4115 64.5193 82.4115 66.8022C82.4115 69.0851 80.5541 70.9425 78.2712 70.9425H33.7505V62.6618H63.4218C64.1096 62.6618 64.6669 62.1045 64.6669 61.4167C64.6669 60.7288 64.1096 60.1715 63.4218 60.1715H33.7505V21.7298H43.8532V24.4008C43.8532 25.8197 45.0075 26.9741 46.4264 26.9741H51.3239V31.8715C51.3239 33.2905 52.4782 34.4448 53.8971 34.4448H56.8771L61.3951 40.7361C61.6647 41.1095 62.0189 41.4137 62.4288 41.6236C62.8387 41.8336 63.2926 41.9434 63.7532 41.944H69.7679C70.6996 41.944 71.5813 41.4925 72.1273 40.7346L76.6443 34.4448H78.6763C82.1092 34.4448 84.9019 31.652 84.9019 28.2192V25.7289C84.8619 25.5076 84.9507 25.422 84.6167 24.9359L73.9815 11.9304C71.0102 8.2963 66.6134 6.21214 61.919 6.21214H46.4266C45.0077 6.21214 43.8534 7.36645 43.8534 8.78538V11.4567H33.7506V6.22559C33.7506 2.79271 30.9579 0 27.5251 0H11.2061C7.77318 0 4.98047 2.79271 4.98047 6.22559V16.5602C4.98047 17.248 5.53795 17.8053 6.22559 17.8053C6.91322 17.8053 7.4707 17.248 7.4707 16.5602V6.22559C7.4707 4.166 9.1463 2.49023 11.2061 2.49023H27.5249C29.5846 2.49023 31.2602 4.166 31.2602 6.22559V32.5932H7.4707V22.3708C7.4707 21.683 6.91322 21.1257 6.22559 21.1257C5.53795 21.1257 4.98047 21.683 4.98047 22.3708V82.5098H1.24512C0.55748 82.5098 0 83.0671 0 83.7549C0 84.4427 0.55748 85 1.24512 85H83.7549C84.4427 85 85 84.4427 85 83.7549C85 83.0671 84.4427 82.5098 83.7549 82.5098ZM70.1059 39.2803C70.0673 39.3338 70.0165 39.3774 69.9578 39.4075C69.8991 39.4376 69.8341 39.4534 69.7681 39.4536H63.7533C63.6877 39.4535 63.6229 39.4379 63.5645 39.408C63.506 39.3782 63.4554 39.3349 63.4168 39.2818L59.9431 34.4446H73.5786L70.1059 39.2803ZM82.4117 28.2192C82.4117 30.2788 80.7359 31.9545 78.6763 31.9545H53.8971C53.8751 31.9545 53.854 31.9457 53.8385 31.9302C53.8229 31.9146 53.8142 31.8935 53.8141 31.8715V26.9741H82.4117V28.2192ZM46.3434 8.78538C46.3434 8.73973 46.3808 8.70237 46.4264 8.70237H61.9188C65.8632 8.70237 69.5572 10.4535 72.0538 13.5067L81.0301 24.4837H46.4264C46.4044 24.4836 46.3833 24.4748 46.3678 24.4593C46.3522 24.4437 46.3435 24.4226 46.3434 24.4006V8.78538ZM33.7505 13.947H43.8532V19.2396H33.7505V13.947ZM31.2602 82.5098H7.4707V52.4068H31.2602V82.5098ZM31.2602 49.9166H7.4707V35.0834H31.2602V49.9166ZM66.7003 82.5098H33.7505V73.4327H66.7004V82.5098H66.7003ZM73.9445 82.5098H69.1905V73.4327H73.9445V82.5098ZM59.2697 48.0054C59.1541 48.121 59.0623 48.2582 58.9997 48.4093C58.9371 48.5603 58.9049 48.7222 58.9049 48.8858C58.9049 49.0493 58.9371 49.2112 58.9996 49.3622C59.0622 49.5133 59.1539 49.6506 59.2696 49.7662C61.2707 51.7673 63.9311 52.8693 66.761 52.8693C69.5909 52.8693 72.2513 51.7672 74.2525 49.7663C74.486 49.5328 74.6172 49.2161 74.6172 48.8859C74.6172 48.5556 74.486 48.2389 74.2525 48.0054C74.019 47.7719 73.7023 47.6407 73.372 47.6407C73.0418 47.6407 72.7251 47.7719 72.4916 48.0054C70.9609 49.5362 68.9257 50.3793 66.761 50.3793C64.5963 50.3793 62.5612 49.5362 61.0305 48.0056C60.797 47.7721 60.4804 47.6409 60.1502 47.6409C59.8199 47.6408 59.5033 47.772 59.2697 48.0054Z" fill="#101010"/>
</g>
<defs>
<clipPath id="clip0_128_54">
<rect width="85" height="85" fill="white"/>
</clipPath>
</defs>
</svg>
