<svg width="85" height="86" viewBox="0 0 85 86" fill="none" xmlns="http://www.w3.org/2000/svg">
<path d="M83.7549 28.9461C84.4427 28.9461 85 28.3888 85 27.701V20.6137C85 20.4135 84.9518 20.2163 84.8594 20.0388C84.767 19.8612 84.6332 19.7086 84.4692 19.5938C84.3053 19.4789 84.1161 19.4053 83.9177 19.3791C83.7193 19.353 83.5175 19.375 83.3294 19.4434C77.3611 21.6137 69.9613 22.8582 62.4931 22.9475C55.3184 23.0293 48.7267 22.0082 44.4065 20.1354C44.4006 20.1327 44.3946 20.1302 44.3886 20.1277C35.6037 16.4812 26.0714 15.1672 16.0665 16.2201C10.5481 16.7541 5.56717 17.8062 0.839043 19.4366C0.594104 19.5211 0.381628 19.6799 0.231229 19.8909C0.0808288 20.1019 -2.37988e-06 20.3545 9.54655e-08 20.6137V65.312C-7.76033e-05 65.5104 0.0472747 65.706 0.138109 65.8824C0.228943 66.0587 0.360628 66.2109 0.522183 66.326C0.683738 66.4412 0.870482 66.516 1.06685 66.5444C1.26321 66.5727 1.4635 66.5537 1.65103 66.4889C6.19155 64.9232 10.9854 63.9119 16.3168 63.3959C25.9106 62.386 35.0311 63.6401 43.4252 67.1223C48.0766 69.1365 54.6263 70.1315 61.5807 70.1315C69.3012 70.1315 77.5195 68.9039 84.1804 66.4821C84.4206 66.3947 84.6281 66.2356 84.7747 66.0262C84.9213 65.8169 85 65.5675 85 65.3119V33.4246C85 32.7368 84.4427 32.1795 83.7549 32.1795C83.0671 32.1795 82.5098 32.7368 82.5098 33.4246V64.431C76.6906 66.4225 69.623 67.5607 62.4931 67.6459C55.3204 67.7334 48.7269 66.7069 44.4065 64.8337C44.4006 64.8311 44.3946 64.8286 44.3886 64.8261C35.6039 61.1796 26.0716 59.8656 16.0667 60.9184C11.1865 61.3907 6.72662 62.2681 2.4904 63.5923V21.5085C6.7824 20.1027 11.313 19.1818 16.317 18.6975C25.9109 17.6873 35.0313 18.9412 43.4257 22.4241C52.8175 26.4909 69.957 26.4041 82.5099 22.356V27.7009C82.5099 27.8644 82.542 28.0263 82.6046 28.1774C82.6671 28.3285 82.7588 28.4658 82.8744 28.5814C82.99 28.6971 83.1273 28.7888 83.2784 28.8514C83.4294 28.914 83.5914 28.9462 83.7549 28.9461Z" fill="#101010"/>
<path d="M77.9443 57.0437C78.6321 57.0437 79.1895 56.4863 79.1895 55.7985V33.5443C79.1895 32.8565 78.6321 32.2992 77.9443 32.2992C75.9991 32.2992 74.3411 30.9121 74.0021 29.001C73.9455 28.6831 73.7678 28.3997 73.5063 28.2103C73.2448 28.021 72.9201 27.9405 72.6005 27.9859C61.1648 29.6159 49.4924 28.6578 42.1376 25.4847C42.1321 25.4823 42.1265 25.4801 42.1207 25.4776C34.2525 22.2201 25.6876 21.05 16.6587 22.0004L16.6263 22.0037C15.0372 22.1575 13.4765 22.3607 11.988 22.608C11.8222 22.6356 11.6637 22.6964 11.522 22.7868C11.3804 22.8772 11.2585 22.9954 11.1637 23.1341C11.0689 23.2729 11.0032 23.4295 10.9706 23.5943C10.9379 23.7592 10.9389 23.9289 10.9736 24.0934C11.0309 24.3648 11.06 24.6442 11.06 24.9243C11.06 27.1321 9.26384 28.9282 7.05583 28.9282C6.89231 28.9282 6.73039 28.9604 6.57932 29.023C6.42824 29.0855 6.29097 29.1773 6.17535 29.2929C6.05973 29.4085 5.96801 29.5458 5.90545 29.6969C5.84288 29.8479 5.81069 30.0098 5.81071 30.1734V42.0089C5.81071 42.6968 6.36803 43.2541 7.05583 43.2541C7.74363 43.2541 8.30095 42.6968 8.30095 42.0089V31.2986C11.2882 30.7162 13.5502 28.0792 13.5502 24.9243L13.55 24.8843C14.6492 24.7236 15.7522 24.5899 16.8579 24.4832L16.9253 24.4765C25.5274 23.5704 33.6821 24.6807 41.1604 27.7754C48.6768 31.0147 60.3565 32.0777 71.869 30.5982C72.6616 32.7 74.4935 34.2434 76.6994 34.6707V54.6735C73.7121 55.2558 71.4501 57.8928 71.4501 61.048L71.4505 61.1152C68.5118 61.5571 65.481 61.7993 62.4239 61.836C56.0359 61.9111 50.3119 61.0611 46.7171 59.5023L46.6164 59.4595C39.0973 56.3384 31.0469 54.756 22.6885 54.756C20.318 54.756 17.89 54.8845 15.4821 55.1373C14.6957 55.2137 13.9111 55.3008 13.1386 55.3976C12.75 54.3585 12.1011 53.4366 11.254 52.7202C10.4069 52.0038 9.39 51.517 8.30078 51.3063V47.8222C8.30078 47.1343 7.74347 46.577 7.05566 46.577C6.36786 46.577 5.81055 47.1343 5.81055 47.8222V52.4326C5.81055 53.1204 6.36786 53.6777 7.05566 53.6777C9.00685 53.6777 10.6657 55.0699 11 56.988C11.1152 57.6493 11.734 58.0993 12.3985 58.0075C13.5069 57.8536 14.6182 57.7227 15.732 57.6149C18.0637 57.3702 20.4041 57.2462 22.6882 57.2462C30.7172 57.2462 38.4466 58.7646 45.6603 61.759L45.727 61.7874C49.476 63.413 55.246 64.3307 61.6541 64.3307C61.9193 64.3307 62.186 64.3291 62.4533 64.3259C66.0417 64.2831 69.5972 63.9667 73.021 63.3856C73.1867 63.3575 73.345 63.2961 73.4864 63.2051C73.6278 63.1142 73.7492 62.9955 73.8435 62.8563C73.9378 62.7171 74.0029 62.5603 74.0349 62.3953C74.0669 62.2303 74.0652 62.0605 74.0299 61.8961C73.9701 61.6174 73.94 61.3332 73.94 61.0481C73.9402 58.8399 75.7363 57.0437 77.9443 57.0437Z" fill="#101010"/>
<path d="M35.3112 45.8661C34.6234 45.8661 34.066 46.4234 34.066 47.1112C34.066 47.799 34.6234 48.3563 35.3112 48.3563H37.3457V50.8963C37.3457 51.5841 37.903 52.1415 38.5908 52.1415C39.2786 52.1415 39.8359 51.5841 39.8359 50.8963V48.3563H46.2431C46.9309 48.3563 47.4882 47.799 47.4882 47.1112C47.4882 46.4234 46.9309 45.8661 46.2431 45.8661H39.8359V43.4573H46.2431C48.738 43.4573 50.7679 41.4275 50.7679 38.9326C50.7679 36.4377 48.738 34.4078 46.2431 34.4078H38.5908C38.4273 34.4078 38.2654 34.44 38.1143 34.5026C37.9632 34.5651 37.8259 34.6569 37.7103 34.7725C37.5947 34.8881 37.503 35.0254 37.4404 35.1764C37.3778 35.3275 37.3457 35.4894 37.3457 35.653V40.9671H35.3112C34.6234 40.9671 34.066 41.5244 34.066 42.2122C34.066 42.9 34.6234 43.4573 35.3112 43.4573H37.3457V45.8661H35.3112ZM39.8359 36.8982H46.2431C47.3651 36.8982 48.2776 37.8108 48.2776 38.9328C48.2776 40.0547 47.3651 40.9673 46.2431 40.9673H39.8359V36.8982ZM26.764 39.1341C26.764 36.5978 24.7004 34.5342 22.164 34.5342C19.6277 34.5342 17.5641 36.5978 17.5641 39.1341C17.5641 41.6705 19.6277 43.7341 22.164 43.7341C24.7004 43.7341 26.764 41.6707 26.764 39.1341ZM20.0543 39.1341C20.0543 37.9709 21.0008 37.0244 22.164 37.0244C23.3273 37.0244 24.2738 37.9709 24.2738 39.1341C24.2738 40.2974 23.3273 41.2439 22.164 41.2439C21.0008 41.2439 20.0543 40.2974 20.0543 39.1341ZM67.2698 46.8764C67.2698 44.3401 65.2063 42.2765 62.6699 42.2765C60.1335 42.2765 58.0699 44.3401 58.0699 46.8764C58.0699 49.4128 60.1335 51.4764 62.6699 51.4764C65.2063 51.4764 67.2698 49.4128 67.2698 46.8764ZM60.5601 46.8764C60.5601 45.7132 61.5066 44.7667 62.6699 44.7667C63.8331 44.7667 64.7796 45.7132 64.7796 46.8764C64.7796 48.0397 63.8331 48.9862 62.6699 48.9862C61.5066 48.9862 60.5601 48.0397 60.5601 46.8764Z" fill="#101010"/>
</svg>
