<svg width="20" height="18" viewBox="0 0 20 18" fill="none" xmlns="http://www.w3.org/2000/svg">
<path d="M19.1744 3.89762C18.8752 3.20484 18.4438 2.57706 17.9043 2.0494C17.3644 1.52017 16.7279 1.0996 16.0293 0.810563C15.3049 0.509654 14.528 0.355632 13.7436 0.357438C12.6431 0.357438 11.5695 0.658777 10.6364 1.22797C10.4132 1.36413 10.2012 1.51369 10.0003 1.67663C9.79939 1.51369 9.58733 1.36413 9.36412 1.22797C8.43108 0.658777 7.35742 0.357438 6.25698 0.357438C5.46456 0.357438 4.69671 0.509223 3.97126 0.810563C3.27037 1.10074 2.63867 1.51815 2.09626 2.0494C1.55608 2.57646 1.12456 3.20439 0.826172 3.89762C0.515904 4.6186 0.357422 5.38422 0.357422 6.17217C0.357422 6.91547 0.509208 7.69003 0.810547 8.47797C1.06278 9.13646 1.42439 9.81949 1.88644 10.5092C2.61858 11.6007 3.62528 12.7391 4.87528 13.8932C6.94671 15.8061 8.99805 17.1275 9.0851 17.1811L9.61412 17.5204C9.84849 17.6699 10.1498 17.6699 10.3842 17.5204L10.9132 17.1811C11.0003 17.1253 13.0494 15.8061 15.123 13.8932C16.373 12.7391 17.3797 11.6007 18.1119 10.5092C18.5739 9.81949 18.9378 9.13646 19.1878 8.47797C19.4891 7.69003 19.6409 6.91547 19.6409 6.17217C19.6431 5.38422 19.4847 4.6186 19.1744 3.89762ZM10.0003 15.7548C10.0003 15.7548 2.05385 10.6632 2.05385 6.17217C2.05385 3.89762 3.93555 2.05387 6.25698 2.05387C7.88867 2.05387 9.30385 2.96458 10.0003 4.29494C10.6967 2.96458 12.1119 2.05387 13.7436 2.05387C16.065 2.05387 17.9467 3.89762 17.9467 6.17217C17.9467 10.6632 10.0003 15.7548 10.0003 15.7548Z" fill="#3B8ED7"/>
</svg>
