<svg width="35" height="35" viewBox="0 0 35 35" fill="none" xmlns="http://www.w3.org/2000/svg">
<g clip-path="url(#clip0_16_567)">
<path d="M35 17.5C35 7.83502 27.165 0 17.5 0C7.83502 0 0 7.83502 0 17.5C0 27.165 7.83502 35 17.5 35C27.165 35 35 27.165 35 17.5Z" fill="white"/>
<path fill-rule="evenodd" clip-rule="evenodd" d="M20.8591 14.1751C21.4993 14.8447 21.9307 15.6862 22.1009 16.5968C22.271 17.5075 22.1725 18.448 21.8173 19.3036C21.4621 20.1592 20.8656 20.893 20.1006 21.4154C19.3356 21.9378 18.435 22.2264 17.5088 22.2458C16.8913 22.2476 16.2797 22.1263 15.7096 21.8891C15.1395 21.6519 14.6224 21.3035 14.1884 20.8642C13.3024 19.9688 12.8059 18.7597 12.8068 17.5001C12.8023 16.8794 12.9201 16.2639 13.1535 15.6887C13.3869 15.1136 13.7313 14.59 14.1671 14.148C14.6029 13.706 15.1215 13.3542 15.6933 13.1127C16.2651 12.8712 16.8789 12.7448 17.4996 12.7405C18.7287 12.74 19.9079 13.2269 20.7785 14.0945L20.8591 14.1751ZM15.7531 20.1176C16.2723 20.4554 16.8803 20.6311 17.4996 20.6224C17.9068 20.6197 18.3095 20.5368 18.6846 20.3784C19.0598 20.22 19.4 19.9892 19.6859 19.6992C19.9718 19.4092 20.1978 19.0658 20.3509 18.6884C20.504 18.3111 20.5813 17.9073 20.5782 17.5001C20.5782 16.8807 20.3939 16.2753 20.0488 15.7609C19.7037 15.2465 19.2135 14.8464 18.6404 14.6114C18.0673 14.3764 17.4373 14.3172 16.8304 14.4413C16.2236 14.5654 15.6674 14.8671 15.2325 15.3082C14.7976 15.7492 14.5037 16.3097 14.3882 16.9182C14.2727 17.5267 14.3409 18.1559 14.5839 18.7256C14.8269 19.2953 15.234 19.7799 15.7531 20.1176Z" fill="#101010"/>
<path d="M23.5032 12.953C23.5587 12.8161 23.5867 12.6695 23.5855 12.5218C23.5865 12.2603 23.497 12.0064 23.3322 11.8034L23.3068 11.7757C23.2766 11.7386 23.2427 11.7046 23.2055 11.6744L23.1825 11.6514C22.9829 11.4847 22.731 11.3934 22.471 11.3935C22.2488 11.3972 22.0325 11.466 21.8491 11.5914C21.6656 11.7168 21.523 11.8933 21.4389 12.099C21.3548 12.3047 21.3329 12.5305 21.376 12.7485C21.4191 12.9665 21.5252 13.1671 21.6812 13.3254C21.7841 13.4296 21.9068 13.5124 22.0419 13.5689C22.1771 13.6255 22.3222 13.6546 22.4687 13.6547C22.6164 13.6538 22.7626 13.6237 22.8987 13.5663C23.0348 13.5088 23.1583 13.4251 23.262 13.3199C23.3658 13.2146 23.4477 13.09 23.5032 12.953Z" fill="#101010"/>
<path fill-rule="evenodd" clip-rule="evenodd" d="M13.3549 8.28955H21.6443C22.9879 8.28955 24.2764 8.82327 25.2264 9.77329C26.1764 10.7233 26.7101 12.0118 26.7101 13.3553V21.6448C26.7101 22.9883 26.1764 24.2768 25.2264 25.2269C24.2764 26.1769 22.9879 26.7106 21.6443 26.7106H13.3549C12.0113 26.7106 10.7228 26.1769 9.7728 25.2269C8.82278 24.2768 8.28906 22.9883 8.28906 21.6448V13.3553C8.28906 12.0118 8.82278 10.7233 9.7728 9.77329C10.7228 8.82327 12.0113 8.28955 13.3549 8.28955ZM23.8735 23.874C24.6577 23.0898 25.0983 22.0262 25.0983 20.9172V14.083C25.0983 12.9739 24.6577 11.9103 23.8735 11.1261C23.0893 10.342 22.0257 9.90139 20.9167 9.90139H14.0825C12.9735 9.90139 11.9099 10.342 11.1257 11.1261C10.3415 11.9103 9.9009 12.9739 9.9009 14.083V20.9172C9.9009 22.0262 10.3415 23.0898 11.1257 23.874C11.9099 24.6582 12.9735 25.0988 14.0825 25.0988H20.9167C22.0257 25.0988 23.0893 24.6582 23.8735 23.874Z" fill="#101010"/>
</g>
<defs>
<clipPath id="clip0_16_567">
<rect width="35" height="35" fill="white"/>
</clipPath>
</defs>
</svg>
