<svg width="35" height="36" viewBox="0 0 35 36" fill="none" xmlns="http://www.w3.org/2000/svg">
<g clip-path="url(#clip0_11_68)">
<path d="M35 18C35 8.33502 27.165 0.5 17.5 0.5C7.83502 0.5 0 8.33502 0 18C0 27.665 7.83502 35.5 17.5 35.5C27.165 35.5 35 27.665 35 18Z" fill="#101010"/>
<path fill-rule="evenodd" clip-rule="evenodd" d="M20.8595 14.675C21.4997 15.3446 21.9311 16.1861 22.1013 17.0967C22.2714 18.0074 22.1729 18.9479 21.8177 19.8035C21.4625 20.6591 20.866 21.3929 20.101 21.9153C19.3359 22.4378 18.4354 22.7263 17.5092 22.7457C16.8917 22.7475 16.2801 22.6262 15.71 22.389C15.1399 22.1518 14.6228 21.8034 14.1888 21.3641C13.3028 20.4687 12.8063 19.2596 12.8072 18C12.8026 17.3793 12.9204 16.7638 13.1538 16.1886C13.3872 15.6135 13.7317 15.0899 14.1675 14.6479C14.6033 14.2059 15.1219 13.8541 15.6937 13.6126C16.2655 13.3711 16.8793 13.2447 17.5 13.2404C18.7291 13.2399 19.9083 13.7268 20.7789 14.5944L20.8595 14.675ZM15.7535 20.6175C16.2727 20.9553 16.8806 21.131 17.5 21.1223C17.9072 21.1196 18.3099 21.0367 18.685 20.8783C19.0601 20.7199 19.4004 20.4891 19.6863 20.1991C19.9722 19.9092 20.1982 19.5657 20.3513 19.1883C20.5044 18.811 20.5816 18.4072 20.5786 18C20.5785 17.3806 20.3942 16.7752 20.0492 16.2608C19.7041 15.7464 19.2139 15.3463 18.6408 15.1113C18.0677 14.8764 17.4376 14.8171 16.8308 14.9412C16.224 15.0653 15.6677 15.367 15.2328 15.8081C14.798 16.2491 14.5041 16.8096 14.3886 17.4181C14.2731 18.0266 14.3412 18.6558 14.5843 19.2255C14.8273 19.7952 15.2343 20.2798 15.7535 20.6175Z" fill="white"/>
<path d="M23.5036 13.4529C23.5591 13.316 23.587 13.1694 23.5858 13.0217C23.5868 12.7602 23.4974 12.5063 23.3325 12.3033L23.3072 12.2756C23.277 12.2385 23.243 12.2046 23.2059 12.1743L23.1829 12.1513C22.9832 11.9846 22.7314 11.8934 22.4713 11.8934C22.2491 11.8971 22.0329 11.9659 21.8494 12.0913C21.666 12.2167 21.5234 12.3932 21.4393 12.5989C21.3552 12.8046 21.3333 13.0304 21.3764 13.2484C21.4194 13.4665 21.5255 13.667 21.6815 13.8253C21.7845 13.9296 21.9071 14.0123 22.0423 14.0689C22.1775 14.1254 22.3225 14.1545 22.469 14.1546C22.6168 14.1537 22.7629 14.1236 22.8991 14.0662C23.0352 14.0087 23.1587 13.925 23.2624 13.8198C23.3661 13.7145 23.4481 13.5899 23.5036 13.4529Z" fill="white"/>
<path fill-rule="evenodd" clip-rule="evenodd" d="M13.3552 8.78946H21.6447C22.9882 8.78946 24.2767 9.32317 25.2267 10.2732C26.1768 11.2232 26.7105 12.5117 26.7105 13.8552V22.1447C26.7105 23.4883 26.1768 24.7768 25.2267 25.7268C24.2767 26.6768 22.9882 27.2105 21.6447 27.2105H13.3552C12.0117 27.2105 10.7232 26.6768 9.77316 25.7268C8.82314 24.7768 8.28943 23.4883 8.28943 22.1447V13.8552C8.28943 12.5117 8.82314 11.2232 9.77316 10.2732C10.7232 9.32317 12.0117 8.78946 13.3552 8.78946ZM23.8739 24.3739C24.6581 23.5897 25.0986 22.5261 25.0986 21.4171V14.5829C25.0986 13.4739 24.6581 12.4103 23.8739 11.6261C23.0897 10.8419 22.0261 10.4013 20.9171 10.4013H14.0828C12.9738 10.4013 11.9102 10.8419 11.126 11.6261C10.3418 12.4103 9.90127 13.4739 9.90127 14.5829V21.4171C9.90127 22.5261 10.3418 23.5897 11.126 24.3739C11.9102 25.1581 12.9738 25.5987 14.0828 25.5987H20.9171C22.0261 25.5987 23.0897 25.1581 23.8739 24.3739Z" fill="white"/>
</g>
<defs>
<clipPath id="clip0_11_68">
<rect width="35" height="35" fill="white" transform="translate(0 0.5)"/>
</clipPath>
</defs>
</svg>
