<svg width="12.000000" height="12.000000" viewBox="0 0 12 12" fill="none" xmlns="http://www.w3.org/2000/svg" xmlns:xlink="http://www.w3.org/1999/xlink">
	<desc>
			Created with Pixso.
	</desc>
	<defs>
		<clipPath id="clip6_11077">
			<rect id="Right" rx="-0.500000" width="11.000000" height="11.000000" transform="matrix(-1 0 0 1 12.5 0.5)" fill="white" fill-opacity="0"/>
		</clipPath>
	</defs>
	<g clip-path="url(#clip6_11077)">
		<path id="Vector" d="M2.6 5.66L8.63 0.94C8.65 0.93 8.67 0.92 8.69 0.92C8.71 0.92 8.73 0.92 8.75 0.93C8.77 0.94 8.78 0.95 8.79 0.97C8.8 0.99 8.81 1.01 8.81 1.03L8.81 2.06C8.81 2.13 8.78 2.19 8.73 2.23L3.9 6L8.73 9.76C8.78 9.8 8.81 9.86 8.81 9.93L8.81 10.96C8.81 11.05 8.7 11.1 8.63 11.05L2.6 6.33C2.55 6.29 2.5 6.24 2.48 6.18C2.45 6.12 2.43 6.06 2.43 6C2.43 5.93 2.45 5.87 2.48 5.81C2.5 5.75 2.55 5.7 2.6 5.66Z" fill="#000000" fill-opacity="0.850000" fill-rule="nonzero"/>
	</g>
</svg>
