<svg width="153" height="40" viewBox="0 0 153 40" fill="none" xmlns="http://www.w3.org/2000/svg">
<g clip-path="url(#clip0_16_229)">
<path d="M26.7123 27.141C27.8394 26.5777 28.9298 25.9461 29.9772 25.2497C32.3609 23.6445 34.6077 21.8508 36.6953 19.8864C34.615 17.8237 32.326 15.9754 29.8641 14.3701C28.7146 13.6309 27.508 12.9815 26.2554 12.4279C27.0246 13.0543 27.7017 13.7828 28.267 14.5927C29.3646 16.1515 29.95 18.004 29.9442 19.9003C29.9362 21.7475 29.3989 23.555 28.3942 25.1153C27.9253 25.8556 27.3652 26.536 26.7265 27.141M14.0063 27.5258C13.2475 26.8603 12.5863 26.0943 12.0418 25.2497C11.0063 23.6509 10.4526 21.7961 10.4447 19.9003C10.4444 19.7969 10.4651 19.6944 10.5055 19.5989C10.546 19.5034 10.6054 19.4167 10.6802 19.3441C10.7539 19.2702 10.8419 19.2116 10.939 19.1718C11.0361 19.132 11.1404 19.1118 11.2456 19.1123H21.7232C21.8817 19.1118 22.0368 19.1575 22.1689 19.2438C22.301 19.33 22.4041 19.4529 22.4651 19.5969C22.5261 19.7408 22.5424 19.8994 22.5118 20.0524C22.4812 20.2055 22.4052 20.3461 22.2933 20.4566C22.2184 20.5302 22.1295 20.5885 22.0317 20.6283C21.9339 20.6681 21.829 20.6885 21.7232 20.6884H12.0794C12.2854 22.6228 13.1427 24.434 14.5151 25.8338C15.9904 27.3617 17.955 28.3437 20.079 28.6151C22.3226 28.3396 24.3968 27.2978 25.9397 25.6716C27.4515 24.114 28.3053 22.0494 28.3283 19.8957C28.3223 18.788 28.0826 17.6936 27.6244 16.6819C27.1662 15.6701 26.4995 14.7629 25.6665 14.0178C23.7885 12.3252 21.3848 11.306 18.8447 11.1253C16.4891 10.9584 14.0016 11.8901 11.6837 13.2159C7.87708 15.3946 4.61695 18.6348 3.39204 19.905C5.48261 21.9841 7.77536 23.8566 10.2374 25.4954C11.4326 26.2739 12.6917 26.9531 14.0016 27.5258H14.0063ZM40.6574 28.0496V40H28.4743V38.5398H39.1734V28.0125H40.6527L40.6574 28.0496ZM28.512 0H40.6527V11.9828H39.1734V1.46019H28.4743V0H28.512ZM1.48402 28.0496V38.5398H12.1831V40H0C0 36.0042 0 32.0083 0 28.0125H1.48402V28.0496ZM0.744365 0H12.1831V1.46019H1.48402V11.9828H0V0H0.744365ZM52.996 31.5726C52.9942 31.9461 53.0305 32.3188 53.1043 32.6851C53.1778 33.0435 53.29 33.3931 53.4388 33.7281C53.5817 34.0533 53.7569 34.3639 53.9618 34.6552C54.1608 34.9577 54.3913 35.2388 54.6496 35.4943C54.9053 35.741 55.1845 35.963 55.4835 36.1571C55.7811 36.3563 56.0965 36.5285 56.4257 36.6717C56.7661 36.8173 57.1215 36.9261 57.4857 36.9962C57.8579 37.0703 58.2367 37.1076 58.6164 37.1074C59.1223 37.1075 59.626 37.042 60.1145 36.9127C60.3517 36.8463 60.5845 36.7658 60.8118 36.6717C61.0358 36.58 61.253 36.4732 61.4619 36.3518C61.6707 36.2313 61.8706 36.0966 62.0603 35.9485C62.2525 35.8077 62.4336 35.6527 62.602 35.485C62.7714 35.3182 62.9288 35.1401 63.0732 34.9519C63.2226 34.7646 63.3595 34.5679 63.483 34.3632C63.6063 34.1576 63.715 33.9439 63.8081 33.7235C63.9065 33.5009 63.9884 33.2717 64.0531 33.0374C64.1243 32.8024 64.1763 32.5621 64.2085 32.3189C64.2408 32.0699 64.2565 31.819 64.2557 31.568C64.2572 31.193 64.2209 30.8187 64.1473 30.4508C64.0709 30.0932 63.9589 29.7438 63.8128 29.4078C63.665 29.0767 63.4884 28.7588 63.2852 28.4575C62.8765 27.8685 62.3587 27.3605 61.7587 26.9603C61.4622 26.758 61.1467 26.5842 60.8165 26.4411C60.4777 26.2946 60.1239 26.1843 59.7612 26.1119C59.389 26.038 59.0102 26.0007 58.6305 26.0007C58.3721 26.0015 58.1141 26.0186 57.8579 26.0517C57.6129 26.0846 57.3704 26.1342 57.1324 26.2C56.8952 26.2665 56.6624 26.347 56.4351 26.4411C56.2128 26.5381 55.9958 26.6464 55.785 26.7656C55.5765 26.8871 55.3751 27.0202 55.1819 27.1642C54.9929 27.3089 54.8121 27.4637 54.6402 27.6278C54.4697 27.7951 54.3122 27.9749 54.169 28.1655C54.0232 28.3533 53.8895 28.5499 53.7686 28.7542C53.6453 28.9598 53.5367 29.1735 53.4435 29.3939C53.3451 29.618 53.2632 29.8489 53.1985 30.0846C53.1278 30.3213 53.0758 30.5631 53.0431 30.8077C53.0102 31.0614 52.9945 31.3169 52.996 31.5726ZM134.763 11.6769H141.359C140.256 9.05783 139.135 6.45266 138.061 3.82431L134.763 11.6769ZM107.744 13.6006H114.924V2.85549H109.77V5.062C109.77 5.57654 109.77 6.09572 109.723 6.61027C109.676 7.12481 109.657 7.53737 109.591 8.00093C109.525 8.46448 109.469 8.83069 109.389 9.23861C109.309 9.64654 109.219 9.99421 109.115 10.365C109.012 10.7359 108.913 11.0418 108.79 11.371C108.668 11.7001 108.555 11.9828 108.413 12.2981C108.272 12.6133 108.15 12.8497 108.008 13.1232C107.928 13.2669 107.839 13.443 107.744 13.6006ZM92.0704 8.24661C92.0704 8.62023 92.1083 8.99291 92.1835 9.35914C92.2561 9.71719 92.3666 10.0668 92.5133 10.4021C92.6605 10.7261 92.8371 11.0364 93.0409 11.3292C93.4429 11.918 93.9583 12.4235 94.5579 12.8172C94.8555 13.0178 95.1709 13.1915 95.5002 13.3364C95.841 13.4807 96.1963 13.5895 96.5602 13.6609C96.9324 13.7349 97.3111 13.7721 97.6908 13.7722C98.1972 13.7736 98.7012 13.7065 99.189 13.5728C99.4278 13.5087 99.6623 13.4297 99.891 13.3364C100.115 13.2432 100.332 13.1347 100.541 13.0119C100.748 12.8903 100.948 12.7572 101.139 12.6133C101.33 12.4699 101.51 12.3151 101.681 12.1497C101.848 11.9806 102.005 11.8026 102.152 11.6166C102.299 11.4281 102.434 11.2316 102.557 11.0279C102.68 10.8215 102.791 10.6078 102.887 10.3882C102.997 10.1764 103.093 9.95815 103.175 9.73462C103.242 9.4988 103.292 9.25873 103.325 9.01611C103.361 8.76739 103.379 8.51639 103.377 8.26515C103.377 7.88999 103.34 7.51575 103.264 7.14799C103.193 6.78907 103.081 6.4392 102.93 6.10499C102.785 5.77254 102.608 5.45436 102.402 5.15471C102.2 4.85997 101.97 4.58518 101.714 4.33422C101.458 4.08369 101.179 3.85712 100.88 3.65743C100.574 3.45594 100.251 3.28069 99.9145 3.13362C99.5755 2.98874 99.2217 2.87996 98.8592 2.80913C98.4855 2.73496 98.1051 2.69769 97.7238 2.69788C97.4669 2.69639 97.2103 2.71344 96.9559 2.74887C96.709 2.77999 96.4649 2.82958 96.2257 2.89721C95.9901 2.96367 95.7588 3.04416 95.5331 3.13825C95.309 3.23149 95.0918 3.33991 94.883 3.46274C94.4631 3.70305 94.0767 3.99599 93.7335 4.33422C93.5641 4.50267 93.4067 4.68233 93.2623 4.87194C93.115 5.0597 92.9797 5.25632 92.8572 5.46066C92.7339 5.66621 92.6253 5.87996 92.5321 6.10036C92.4365 6.32398 92.3547 6.55309 92.2871 6.78642C92.2211 7.02402 92.1708 7.26557 92.1364 7.50956C92.0986 7.75363 92.0766 7.9998 92.0704 8.24661ZM68.312 11.6769H74.9076C73.8052 9.05783 72.6792 6.45266 71.6098 3.82431L68.312 11.6769ZM108.715 31.211C108.8 31.2032 108.885 31.1909 108.969 31.1739C109.12 31.1454 109.267 31.1003 109.408 31.0395C109.554 30.9804 109.694 30.9041 109.822 30.8124C109.964 30.7119 110.095 30.5969 110.213 30.4693C110.392 30.2886 110.562 30.0985 110.727 29.8992C110.892 29.6998 111.075 29.4681 111.24 29.2502L111.499 28.9118L112.013 28.2211C112.187 27.9986 112.357 27.7576 112.522 27.5443L112.884 27.0576C113.002 26.8954 113.125 26.7331 113.252 26.594C113.379 26.455 113.506 26.2881 113.643 26.1305C113.778 25.9879 113.921 25.8532 114.072 25.7272C114.219 25.601 114.377 25.4863 114.543 25.3842C114.708 25.2837 114.879 25.1939 115.056 25.1153C115.445 24.954 115.864 24.8735 116.286 24.8789C116.36 24.8726 116.435 24.8851 116.504 24.9151C116.572 24.9451 116.632 24.9916 116.677 25.0504C116.732 25.1315 116.761 25.2266 116.762 25.3239V25.7272C116.761 25.7794 116.752 25.8311 116.733 25.8802C116.718 25.932 116.691 25.9796 116.653 26.0192C116.614 26.0661 116.564 26.1027 116.507 26.1259C116.452 26.149 116.393 26.1616 116.333 26.1629C115.996 26.1619 115.668 26.2622 115.391 26.4503C115.225 26.5533 115.068 26.6679 114.92 26.7934C114.763 26.9394 114.615 27.0942 114.477 27.2569C114.321 27.4284 114.171 27.6 114.029 27.7807C113.888 27.9615 113.732 28.1516 113.596 28.3463C113.459 28.541 113.299 28.7449 113.125 28.9443C112.95 29.1436 112.823 29.3336 112.654 29.5283L111.871 30.525L111.697 30.7382L117.779 37.7286C117.806 37.755 117.827 37.7866 117.841 37.8213C117.856 37.8565 117.864 37.8943 117.864 37.9326C117.864 38.0166 117.832 38.0975 117.775 38.1597C117.742 38.2019 117.698 38.2341 117.647 38.2524C117.601 38.271 117.551 38.2805 117.501 38.2802H116.733C116.657 38.2796 116.58 38.2671 116.507 38.2431C116.436 38.2187 116.369 38.1827 116.309 38.1365C116.251 38.0973 116.196 38.0539 116.145 38.0067C116.097 37.9604 116.046 37.9047 116.003 37.8538C114.26 35.7956 112.517 33.7405 110.774 31.6885L110.647 31.7719L110.392 31.9434C110.307 31.9991 110.218 32.0547 110.124 32.1057L109.846 32.2401C109.751 32.2818 109.653 32.3236 109.554 32.356C109.455 32.3885 109.356 32.4209 109.257 32.4487C109.147 32.4775 109.035 32.4991 108.922 32.5136H108.743V37.7935C108.748 37.8599 108.738 37.9265 108.715 37.9889C108.691 38.0512 108.654 38.1079 108.607 38.1549C108.559 38.202 108.501 38.2384 108.438 38.2616C108.374 38.2848 108.307 38.2943 108.239 38.2895H107.862C107.724 38.2965 107.589 38.2499 107.485 38.1597C107.436 38.1125 107.398 38.0553 107.373 37.992C107.349 37.9287 107.339 37.861 107.344 37.7935V25.3239C107.338 25.2559 107.348 25.1874 107.372 25.1234C107.396 25.0594 107.434 25.0014 107.483 24.9536C107.533 24.9057 107.593 24.8692 107.658 24.8467C107.724 24.8242 107.793 24.8162 107.862 24.8233H108.239C108.308 24.8204 108.377 24.8317 108.441 24.8565C108.505 24.8812 108.563 24.9189 108.611 24.967C108.658 25.0147 108.693 25.0716 108.715 25.1339C108.734 25.1955 108.743 25.2595 108.743 25.3239L108.715 31.211ZM94.3412 35.9346L103.113 25.0319C103.156 24.9699 103.214 24.9203 103.283 24.8882C103.354 24.8521 103.434 24.8346 103.514 24.8372H103.872C103.946 24.8372 104.02 24.8513 104.089 24.8789C104.16 24.9073 104.225 24.9482 104.282 24.9994C104.34 25.0528 104.387 25.1175 104.418 25.1895C104.448 25.2632 104.464 25.3418 104.466 25.4213V37.6961C104.473 37.8521 104.419 38.0051 104.315 38.1226C104.259 38.176 104.192 38.2176 104.119 38.2447C104.046 38.2718 103.969 38.2839 103.891 38.2802H103.674C103.513 38.2874 103.356 38.2325 103.236 38.1272C103.182 38.0692 103.141 38.0012 103.114 37.9272C103.087 37.8531 103.076 37.7746 103.08 37.6961V27.2198L94.3271 38.0948C94.2805 38.1574 94.2168 38.2056 94.1433 38.2339C94.0689 38.2652 93.9887 38.281 93.9078 38.2802H93.5497C93.4708 38.2803 93.3926 38.2662 93.3189 38.2385C93.2475 38.2084 93.182 38.166 93.1257 38.1133C93.0154 38.0018 92.9544 37.8518 92.9561 37.6961V25.3888C92.9553 25.3092 92.9714 25.2302 93.0032 25.157C93.0362 25.0859 93.0844 25.0227 93.1446 24.9716C93.2005 24.9242 93.2642 24.8866 93.333 24.8604C93.4021 24.8343 93.4757 24.8217 93.5497 24.8233H93.7523C93.8344 24.8213 93.9161 24.8355 93.9926 24.865C94.0681 24.8942 94.1346 24.9421 94.1857 25.0041C94.232 25.0588 94.2672 25.1217 94.2894 25.1895C94.3141 25.2563 94.3268 25.3269 94.3271 25.3981L94.3412 35.9346ZM86.238 26.2V37.724C86.2458 37.8017 86.2356 37.8802 86.2082 37.9536C86.1808 38.027 86.137 38.0933 86.0799 38.1477C86.0228 38.2021 85.954 38.243 85.8786 38.2676C85.8032 38.2921 85.7231 38.2996 85.6444 38.2895H85.4277C85.2714 38.2955 85.119 38.2405 85.0037 38.1365C84.9517 38.0812 84.9115 38.0162 84.8856 37.9453C84.8597 37.8744 84.8486 37.7992 84.8529 37.724V26.1908H80.8908C80.8118 26.1984 80.732 26.1884 80.6574 26.1614C80.5828 26.1345 80.5154 26.0914 80.4602 26.0352C80.4049 25.9791 80.3632 25.9114 80.3383 25.8372C80.3133 25.763 80.3057 25.6842 80.316 25.6067V25.3981C80.3079 25.3218 80.3172 25.2448 80.3432 25.1725C80.3692 25.1003 80.4113 25.0346 80.4663 24.9804C80.5214 24.9262 80.5881 24.8848 80.6616 24.8592C80.735 24.8336 80.8133 24.8245 80.8908 24.8325H90.1624C90.2344 24.832 90.306 24.8429 90.3744 24.865C90.4416 24.8896 90.5038 24.9257 90.5581 24.9716C90.6191 25.0245 90.6669 25.0905 90.6979 25.1644C90.729 25.2383 90.7424 25.3183 90.7372 25.3981V25.6067C90.7393 25.6795 90.7265 25.752 90.6995 25.8199C90.6739 25.8881 90.6356 25.9511 90.5864 26.0053C90.5355 26.0656 90.471 26.1132 90.398 26.1444C90.3235 26.1757 90.2433 26.1915 90.1624 26.1908L86.238 26.2ZM76.6366 26.2278H69.6264V37.724C69.6313 37.8011 69.6191 37.8784 69.5906 37.9504C69.5621 38.0224 69.5181 38.0875 69.4615 38.1412C69.3389 38.245 69.1802 38.2981 69.0187 38.2895H68.7831C68.7056 38.293 68.6283 38.2812 68.5555 38.2549C68.4827 38.2287 68.4159 38.1884 68.3591 38.1365C68.3065 38.0815 68.2656 38.0166 68.2389 37.9457C68.2122 37.8749 68.2002 37.7995 68.2036 37.724V25.3888C68.2043 25.3162 68.217 25.2442 68.2413 25.1756C68.2699 25.1102 68.308 25.0493 68.3544 24.9948C68.4075 24.9372 68.4737 24.8928 68.5475 24.865C68.6206 24.8351 68.6993 24.8209 68.7784 24.8233H77.4234C77.5722 24.823 77.7161 24.8757 77.8285 24.9716C77.8887 25.0227 77.9369 25.0859 77.9699 25.157C78.0017 25.2302 78.0178 25.3092 78.017 25.3888V37.724C78.0207 37.8006 78.0084 37.8771 77.9809 37.9489C77.9533 38.0206 77.9111 38.0861 77.8568 38.1412C77.7359 38.2447 77.5788 38.2979 77.4187 38.2895H77.1925C77.1151 38.293 77.0377 38.2812 76.9649 38.2549C76.8921 38.2287 76.8254 38.1884 76.7685 38.1365C76.7165 38.0812 76.6764 38.0162 76.6505 37.9453C76.6246 37.8744 76.6135 37.7992 76.6178 37.724L76.6366 26.2278ZM51.6297 31.5726C51.6291 31.2626 51.6496 30.9528 51.691 30.6455C51.7324 30.3403 51.7954 30.0382 51.8794 29.7416C51.9595 29.4491 52.0602 29.1626 52.1809 28.884C52.297 28.6108 52.4324 28.3459 52.5861 28.0913C52.7351 27.8331 52.902 27.5853 53.0855 27.3496C53.2705 27.1164 53.4687 26.8935 53.6791 26.6821C54.1004 26.2643 54.5755 25.9028 55.0924 25.6067C55.3522 25.4572 55.6213 25.3241 55.898 25.208C56.1817 25.0906 56.4728 24.9915 56.7696 24.9113C57.0693 24.8267 57.3747 24.7632 57.6836 24.7213C58.3088 24.636 58.9429 24.636 59.568 24.7213C59.8769 24.7632 60.1823 24.8267 60.482 24.9113C60.7788 24.9915 61.0699 25.0906 61.3536 25.208C61.6304 25.3241 61.8994 25.4572 62.1592 25.6067C62.6754 25.9038 63.1505 26.2653 63.5725 26.6821C63.791 26.8929 63.9971 27.1158 64.1897 27.3496C64.3727 27.5834 64.5411 27.828 64.6938 28.0821C64.8457 28.3376 64.981 28.6024 65.099 28.8747C65.2163 29.1546 65.317 29.4409 65.4005 29.7323C65.4867 30.0284 65.5497 30.3306 65.5889 30.6362C65.676 31.2513 65.676 31.8753 65.5889 32.4904C65.5502 32.7946 65.4872 33.0953 65.4005 33.3897C65.3175 33.6803 65.2152 33.9653 65.0943 34.2427C64.9798 34.5158 64.846 34.7807 64.6938 35.0353C64.5411 35.2894 64.3727 35.534 64.1897 35.7678C64.0066 36.0056 63.81 36.2331 63.6008 36.4492C63.1802 36.8742 62.7051 37.2435 62.1875 37.5478C61.9277 37.6972 61.6586 37.8304 61.3818 37.9465C61.0974 38.0619 60.8064 38.161 60.5103 38.2431C60.2103 38.3243 59.9049 38.3847 59.5963 38.4239C58.9711 38.5092 58.337 38.5092 57.7118 38.4239C57.4034 38.3842 57.098 38.3238 56.7979 38.2431C56.5033 38.161 56.2139 38.0619 55.931 37.9465C55.6527 37.8304 55.3821 37.6972 55.1207 37.5478C54.6038 37.2517 54.1286 36.8901 53.7074 36.4724C53.497 36.2609 53.2988 36.0381 53.1137 35.8048C52.9306 35.5721 52.7637 35.3274 52.6144 35.0724C52.4591 34.8163 52.3221 34.5499 52.2045 34.2751C52.0859 33.9994 51.9868 33.7159 51.9077 33.4268C51.8232 33.1318 51.7602 32.8313 51.7192 32.5275C51.6671 32.2116 51.6372 31.8926 51.6297 31.5726ZM152.477 9.24325C152.542 9.24304 152.608 9.25242 152.67 9.27106C152.733 9.28881 152.791 9.32052 152.84 9.36377C152.896 9.40834 152.939 9.46783 152.962 9.53529C152.986 9.59918 152.999 9.66656 153 9.73462V10.1055C152.999 10.1736 152.987 10.241 152.962 10.3048C152.939 10.3688 152.9 10.4262 152.849 10.4717C152.799 10.5183 152.74 10.5545 152.675 10.5783C152.611 10.6006 152.544 10.6116 152.477 10.6107H146.739C146.599 10.6184 146.462 10.5718 146.357 10.4809C146.309 10.4308 146.272 10.3718 146.248 10.3073C146.224 10.2428 146.213 10.1742 146.216 10.1055V9.73462C146.211 9.66691 146.222 9.59904 146.247 9.5358C146.272 9.47256 146.311 9.41549 146.361 9.36863C146.41 9.32177 146.47 9.28625 146.536 9.26458C146.601 9.24292 146.67 9.23564 146.739 9.24325H152.477ZM141.938 13.0027H134.207L133.548 14.5787C133.496 14.6799 133.42 14.7674 133.326 14.8337C133.239 14.9049 133.129 14.9427 133.015 14.9403C132.914 14.9418 132.813 14.9341 132.714 14.9171C132.624 14.9029 132.537 14.8763 132.455 14.8383C132.384 14.8076 132.32 14.7635 132.266 14.7085C132.206 14.6479 132.172 14.5663 132.172 14.4814C132.167 14.4429 132.167 14.404 132.172 14.3655C132.182 14.3291 132.194 14.2934 132.21 14.2589C133.976 10.0869 135.507 5.79441 137.538 1.74296L137.599 1.63171L137.66 1.52973L137.726 1.43238L137.806 1.3443C137.837 1.31274 137.871 1.28613 137.91 1.2655C137.953 1.24135 138.002 1.22858 138.051 1.22842C138.146 1.22958 138.238 1.25865 138.315 1.31186C138.39 1.36926 138.448 1.4442 138.485 1.52973C140.228 5.81759 142.004 10.0962 143.903 14.3284V14.4026V14.5138C143.903 14.6993 143.728 14.7966 143.578 14.8522C143.496 14.884 143.41 14.9073 143.323 14.9218C143.232 14.9287 143.141 14.9287 143.05 14.9218C142.94 14.9245 142.833 14.8919 142.744 14.8291C142.656 14.7635 142.59 14.6752 142.551 14.5741C142.386 14.0781 142.164 13.5404 141.938 13.0027ZM121.887 7.8804C121.974 7.87293 122.061 7.86054 122.147 7.84332C122.294 7.80978 122.439 7.76483 122.58 7.70889C122.727 7.64897 122.866 7.57276 122.995 7.48175C123.137 7.37994 123.27 7.26508 123.39 7.13872C123.571 6.95904 123.743 6.77028 123.904 6.57318C124.078 6.35995 124.252 6.14208 124.422 5.92421L124.681 5.58582L125.195 4.89512C125.364 4.67262 125.539 4.43157 125.699 4.21833L126.062 3.75478L126.429 3.29123C126.556 3.13362 126.683 2.98528 126.825 2.82767C126.958 2.6851 127.099 2.55043 127.249 2.42438C127.397 2.29937 127.555 2.18474 127.72 2.08135C127.883 1.97816 128.055 1.88824 128.233 1.81249C128.621 1.65113 129.038 1.57063 129.458 1.57608C129.533 1.56885 129.607 1.58038 129.676 1.60958C129.744 1.63879 129.804 1.68469 129.849 1.74296C129.906 1.82331 129.937 1.91855 129.939 2.01646V2.42438C129.938 2.47658 129.929 2.52829 129.911 2.57736C129.892 2.62663 129.865 2.6722 129.83 2.71179C129.792 2.76036 129.742 2.79862 129.684 2.82304C129.627 2.8452 129.567 2.85623 129.505 2.85549C129.169 2.85675 128.841 2.95684 128.563 3.14289C128.398 3.24767 128.241 3.36385 128.092 3.49056C127.934 3.63662 127.785 3.79138 127.644 3.95411C127.489 4.12099 127.343 4.29714 127.173 4.47329C127.004 4.64944 126.881 4.84877 126.74 5.03882C126.599 5.22888 126.443 5.44211 126.269 5.64144L125.798 6.22552L125.011 7.22216L124.837 7.43539L130.857 14.4536C130.882 14.4793 130.901 14.5092 130.914 14.5417C130.929 14.5787 130.937 14.6179 130.938 14.6576C130.936 14.7405 130.906 14.8204 130.853 14.8847C130.817 14.9261 130.772 14.958 130.721 14.9774C130.674 14.9866 130.626 14.9866 130.58 14.9774H129.807C129.732 14.9783 129.657 14.9674 129.585 14.945C129.513 14.9187 129.445 14.8828 129.383 14.8383C129.326 14.799 129.273 14.7556 129.223 14.7085L129.077 14.5556C127.387 12.4789 125.663 10.4083 123.904 8.34396L123.781 8.4274L123.527 8.59891C123.437 8.65454 123.348 8.71016 123.254 8.75652C123.165 8.80745 123.074 8.85386 122.98 8.89559L122.684 9.01147L122.387 9.10418C122.278 9.13248 122.168 9.15415 122.057 9.16908H121.873V14.4675C121.877 14.5331 121.867 14.5988 121.844 14.6602C121.82 14.7217 121.783 14.7775 121.736 14.824C121.689 14.8704 121.632 14.9065 121.57 14.9298C121.507 14.953 121.441 14.9629 121.374 14.9589H120.997C120.858 14.9659 120.722 14.9212 120.615 14.8337C120.568 14.7855 120.53 14.7281 120.506 14.6651C120.482 14.6021 120.471 14.5348 120.474 14.4675V1.99791C120.468 1.92946 120.478 1.86055 120.502 1.79615C120.526 1.73176 120.565 1.67349 120.615 1.62558C120.665 1.57767 120.725 1.5413 120.791 1.51911C120.857 1.49692 120.928 1.48946 120.997 1.49728H121.374C121.441 1.49528 121.509 1.50654 121.572 1.53042C121.635 1.5543 121.693 1.59031 121.741 1.63634C121.787 1.68602 121.823 1.74437 121.845 1.80786C121.864 1.86948 121.873 1.93353 121.873 1.99791L121.887 7.8804ZM106.425 14.9589V17.9673C106.428 18.0275 106.418 18.0877 106.395 18.1436C106.372 18.1996 106.338 18.2501 106.293 18.2918C106.201 18.3702 106.081 18.41 105.959 18.4031H105.488C105.367 18.4076 105.249 18.3661 105.158 18.2872C105.116 18.2451 105.084 18.1949 105.063 18.1398C105.042 18.0848 105.032 18.0261 105.036 17.9673V14.0596C105.027 13.9987 105.032 13.9366 105.051 13.8781C105.07 13.8195 105.102 13.7659 105.145 13.7213C105.189 13.6768 105.241 13.6423 105.3 13.6206C105.358 13.5989 105.421 13.5905 105.483 13.596H106.138C106.27 13.392 106.397 13.1835 106.52 12.9702C106.666 12.7199 106.802 12.4649 106.934 12.2054C107.066 11.9458 107.207 11.6352 107.325 11.3385C107.443 11.0418 107.565 10.6895 107.664 10.3604C107.763 10.0313 107.872 9.62336 107.952 9.24789C108.032 8.87241 108.117 8.4274 108.178 8.0102C108.239 7.593 108.291 7.08309 108.324 6.61954C108.357 6.15599 108.371 5.58118 108.371 5.05736V1.93765C108.363 1.8748 108.369 1.81085 108.39 1.75078C108.41 1.69072 108.445 1.63614 108.49 1.5913C108.536 1.54646 108.591 1.51256 108.652 1.49224C108.713 1.47191 108.778 1.4657 108.842 1.4741H115.862C115.918 1.47362 115.974 1.48304 116.027 1.50191C116.081 1.52107 116.131 1.55105 116.173 1.58999C116.222 1.63099 116.262 1.68147 116.291 1.73832C116.315 1.79728 116.328 1.86017 116.328 1.92375V13.6006H117.36C117.418 13.6008 117.475 13.6102 117.53 13.6285C117.581 13.6506 117.629 13.6803 117.671 13.7165C117.718 13.7575 117.755 13.8082 117.779 13.8649C117.806 13.9199 117.819 13.9802 117.817 14.041V17.9071C117.818 17.9758 117.804 18.0439 117.775 18.1064C117.745 18.1721 117.698 18.2283 117.638 18.2686C117.59 18.3007 117.538 18.3257 117.482 18.3428C117.426 18.3495 117.369 18.3495 117.313 18.3428H116.931C116.862 18.3453 116.793 18.3326 116.729 18.3057C116.662 18.2833 116.602 18.245 116.554 18.1945C116.509 18.1457 116.474 18.0891 116.451 18.0276C116.428 17.9636 116.417 17.8961 116.418 17.8283V14.9589H106.425ZM90.7089 8.24661C90.7084 7.93658 90.7289 7.62687 90.7701 7.3195C90.8105 7.01597 90.8719 6.71551 90.9539 6.42021C91.0374 6.12884 91.1381 5.8425 91.2554 5.56264C91.3734 5.29029 91.5087 5.02554 91.6605 4.76996C91.8116 4.51493 91.98 4.27023 92.1646 4.03755C92.5299 3.56651 92.9559 3.14423 93.4319 2.78132C93.6676 2.60225 93.9147 2.43813 94.1716 2.28995C94.4335 2.14143 94.704 2.00831 94.9819 1.8913C95.2649 1.77506 95.5543 1.67446 95.8488 1.58999C96.158 1.50627 96.4729 1.4443 96.791 1.40457C97.4162 1.31932 98.0503 1.31932 98.6755 1.40457C98.9841 1.44583 99.2894 1.50778 99.5894 1.58999C99.8848 1.67165 100.174 1.77231 100.456 1.8913C100.735 2.00548 101.006 2.13869 101.267 2.28995C101.783 2.58706 102.258 2.94853 102.68 3.3654C102.893 3.57473 103.091 3.79773 103.274 4.03291C103.457 4.26562 103.624 4.51033 103.773 4.76533C103.925 5.0209 104.06 5.28565 104.178 5.558C104.298 5.83709 104.398 6.12356 104.48 6.41558C104.565 6.71212 104.63 7.01416 104.673 7.3195C104.716 7.62673 104.738 7.93647 104.739 8.24661C104.738 8.55674 104.716 8.86646 104.673 9.17372C104.632 9.47792 104.567 9.77858 104.48 10.073C104.398 10.3635 104.298 10.6484 104.178 10.9259C104.06 11.1983 103.925 11.463 103.773 11.7186C103.622 11.9729 103.456 12.2175 103.274 12.451C103.09 12.6838 102.891 12.9051 102.68 13.1139C102.258 13.5322 101.783 13.8952 101.267 14.194C101.005 14.3434 100.735 14.4766 100.456 14.5927C100.173 14.7081 99.884 14.8071 99.5894 14.8893C99.2888 14.9678 98.9836 15.0282 98.6755 15.0701C98.0499 15.1493 97.4166 15.1493 96.791 15.0701C96.4827 15.0291 96.1775 14.9687 95.877 14.8893C95.5809 14.8072 95.2899 14.7081 95.0055 14.5927C94.7276 14.4756 94.457 14.3425 94.1952 14.194C93.9382 14.0442 93.6911 13.8785 93.4555 13.698C93.217 13.5194 92.9919 13.3242 92.7818 13.1139C92.569 12.9063 92.3707 12.6849 92.1882 12.451C92.0046 12.2176 91.8363 11.973 91.6841 11.7186C91.5322 11.4615 91.3969 11.1952 91.2789 10.9213C91.1616 10.6446 91.0609 10.3613 90.9774 10.073C90.895 9.77782 90.8336 9.47733 90.7937 9.17372C90.7445 8.86688 90.7162 8.55716 90.7089 8.24661ZM83.0391 8.24661L78.9121 2.22042L78.8556 2.13234C78.8556 2.09062 78.8179 2.05354 78.8038 2.01646C78.7992 1.97331 78.7992 1.92981 78.8038 1.88666C78.8035 1.8374 78.8131 1.78857 78.832 1.74296C78.8523 1.6941 78.8867 1.65219 78.931 1.62244C78.959 1.60122 78.989 1.5826 79.0205 1.56681L79.1241 1.53436C79.196 1.51265 79.2704 1.50019 79.3455 1.49728H79.5481C79.6677 1.49796 79.7867 1.51513 79.9015 1.54827C79.9737 1.56897 80.0409 1.60365 80.0993 1.65025C80.1598 1.69891 80.2136 1.755 80.2595 1.81713L80.5563 2.23896C81.6556 3.87067 82.7659 5.49465 83.8871 7.11091L87.5241 1.81249C87.5669 1.74794 87.6193 1.69012 87.6796 1.64098C87.7392 1.59349 87.8082 1.55876 87.8822 1.539L88.0565 1.50655C88.1161 1.50204 88.1759 1.50204 88.2355 1.50655H88.4522H88.6501C88.7375 1.51732 88.8187 1.55647 88.881 1.6178C88.9414 1.68373 88.9734 1.77013 88.9705 1.85885C88.9773 1.9003 88.9773 1.94256 88.9705 1.98401C88.9589 2.02563 88.9431 2.06601 88.9234 2.10453C87.6796 4.2276 86.1249 6.20234 84.7257 8.2327L88.9658 14.3145C88.9908 14.3506 89.0113 14.3895 89.027 14.4304C89.0337 14.4734 89.0337 14.5172 89.027 14.5602C89.0292 14.6458 89.0009 14.7294 88.9469 14.7966C88.8904 14.8604 88.8143 14.9043 88.7302 14.9218C88.6737 14.9218 88.6171 14.945 88.5606 14.9496C88.5042 14.9542 88.4474 14.9542 88.391 14.9496H87.9717C87.933 14.9447 87.8951 14.9354 87.8586 14.9218L87.7644 14.8847L87.6278 14.8337L87.5618 14.7595L87.4912 14.6761C86.282 12.9084 85.0712 11.1438 83.8588 9.38232L80.236 14.6715L80.1653 14.7642C80.1424 14.7895 80.1171 14.8128 80.0899 14.8337C80.0592 14.8585 80.026 14.8802 79.991 14.8986L79.8873 14.9357H79.7696H79.3455C79.2907 14.9403 79.2355 14.9403 79.1807 14.9357C79.1281 14.9309 79.0761 14.9216 79.0252 14.9079C78.9465 14.8954 78.8747 14.856 78.8226 14.7966C78.7681 14.7352 78.7394 14.6556 78.7425 14.5741C78.745 14.4742 78.7778 14.3774 78.8367 14.296L79.9062 12.7431L83.0391 8.24661ZM75.5012 13.0119H67.7702L67.1059 14.588C67.0571 14.6846 66.9862 14.7687 66.8986 14.8337C66.8114 14.9049 66.701 14.9427 66.5877 14.9403C66.4867 14.9418 66.3857 14.9341 66.2862 14.9171C66.1965 14.9029 66.1093 14.8763 66.0271 14.8383C65.9548 14.8077 65.8892 14.7636 65.8339 14.7085C65.7764 14.6464 65.7445 14.5654 65.7444 14.4814C65.7398 14.4429 65.7398 14.404 65.7444 14.3655C65.7541 14.3291 65.7667 14.2934 65.7821 14.2589C67.5488 10.0869 69.0799 5.79441 71.1104 1.74296L71.1717 1.63171L71.2329 1.52973L71.2989 1.43238L71.379 1.3443C71.408 1.31166 71.4432 1.28489 71.4826 1.2655C71.5257 1.24135 71.5744 1.22858 71.6239 1.22842C71.7184 1.22958 71.8103 1.25865 71.8878 1.31186C71.9607 1.37056 72.0188 1.44515 72.0574 1.52973C73.8005 5.81759 75.5766 10.0962 77.4752 14.3284V14.4026V14.5138C77.4752 14.6993 77.3056 14.7966 77.1549 14.8522C77.0727 14.884 76.9874 14.9073 76.9004 14.9218C76.8079 14.9287 76.715 14.9287 76.6225 14.9218C76.5131 14.9232 76.406 14.8907 76.3163 14.8291C76.2303 14.7632 76.165 14.6748 76.1278 14.5741C75.9488 14.0781 75.7226 13.5404 75.5012 13.0027V13.0119ZM62.1545 8.76579H53.7545V14.4675C53.7589 14.5348 53.7484 14.6022 53.7237 14.6651C53.699 14.7279 53.6606 14.7847 53.6113 14.8315C53.5619 14.8783 53.5028 14.9139 53.438 14.9359C53.3733 14.9579 53.3044 14.9657 53.2362 14.9589H52.8688C52.8011 14.9627 52.7333 14.9532 52.6694 14.9309C52.6054 14.9086 52.5467 14.874 52.4966 14.8291C52.451 14.7806 52.4159 14.7236 52.3932 14.6615C52.3706 14.5994 52.3608 14.5334 52.3647 14.4675V1.98864C52.3649 1.92581 52.3744 1.86334 52.3929 1.80322C52.4156 1.74368 52.4492 1.6887 52.4919 1.64098C52.5398 1.59039 52.5997 1.55219 52.6662 1.52973C52.7312 1.50694 52.7998 1.49594 52.8688 1.49728H53.2457C53.3133 1.49475 53.3807 1.50577 53.4439 1.52967C53.5071 1.55358 53.5647 1.58987 53.6131 1.63634C53.6605 1.68229 53.6974 1.73759 53.7215 1.79859C53.7442 1.85941 53.7554 1.92384 53.7545 1.98864V7.41685H62.1545V1.98864C62.1558 1.92555 62.167 1.86302 62.1875 1.80322C62.2118 1.74342 62.2469 1.68846 62.2911 1.64098C62.3373 1.59058 62.3956 1.55234 62.4607 1.52973C62.5242 1.50739 62.5912 1.4964 62.6586 1.49728H63.026C63.093 1.49708 63.1597 1.50645 63.2239 1.52509C63.2864 1.54629 63.344 1.57936 63.3935 1.62244C63.4476 1.66636 63.4884 1.7241 63.5113 1.78931C63.5374 1.85257 63.5502 1.92038 63.549 1.98864V14.4675C63.5536 14.5352 63.543 14.6031 63.518 14.6663C63.493 14.7295 63.4541 14.7866 63.4043 14.8335C63.3544 14.8803 63.2947 14.9159 63.2293 14.9375C63.164 14.9592 63.0946 14.9665 63.026 14.9589H62.6586C62.5915 14.9636 62.5242 14.9542 62.4612 14.9313C62.3982 14.9083 62.3409 14.8724 62.2931 14.8258C62.2454 14.7793 62.2083 14.7232 62.1844 14.6614C62.1605 14.5996 62.1503 14.5335 62.1545 14.4675V8.76579ZM21.2003 30.2654H20.6114L20.0555 30.219L19.4995 30.2654H18.8918C16.9972 30.2206 15.1322 29.793 13.4127 29.0092C11.2059 28.0239 9.12875 26.7786 7.22694 25.3007C5.26402 23.8232 3.42109 22.1973 1.71487 20.4381C1.5859 20.2995 1.51081 20.1205 1.50286 19.9328C1.49939 19.7407 1.56818 19.5542 1.69602 19.409C1.69602 19.409 2.73248 18.2408 4.36726 16.7389C5.187 15.9833 6.16221 15.1396 7.23636 14.3099C9.12919 12.8074 11.2174 11.5602 13.4457 10.6015C15.1802 9.84232 17.0708 9.49155 18.9672 9.57701C19.165 9.57701 19.3582 9.59555 19.5466 9.63263L20.0178 9.70217L20.1732 9.67435C22.1716 9.58236 24.166 9.9242 26.0151 10.6756C28.3528 11.6141 30.5546 12.8517 32.5636 14.3562C34.6558 15.8575 36.6119 17.534 38.4102 19.3672C38.5568 19.5197 38.6363 19.7229 38.6316 19.9328C38.6297 20.134 38.5486 20.3268 38.4055 20.4705C36.6011 22.2155 34.6776 23.8371 32.6484 25.3239C30.728 26.7801 28.6504 28.0237 26.4532 29.0323C24.8079 29.7967 23.0191 30.2165 21.2003 30.2654Z" fill="#101010"/>
</g>
<defs>
<clipPath id="clip0_16_229">
<rect width="153" height="40" fill="white"/>
</clipPath>
</defs>
</svg>
