<svg width="100.000000" height="60.000000" viewBox="0 0 100 60" fill="none" xmlns="http://www.w3.org/2000/svg" xmlns:xlink="http://www.w3.org/1999/xlink">
	<desc>
			Created with Pixso.
	</desc>
	<defs/>
	<path id="Vector" d="M51.6 20C51.16 20.01 50.75 20.19 50.44 20.5L41.64 29.27L36.23 23.87C34.71 22.29 32.26 24.73 33.85 26.24L40.46 32.84C41.11 33.49 42.18 33.49 42.84 32.84L52.82 22.88C53.92 21.81 53.11 20 51.6 20L51.6 20ZM1.66 33.33L11.66 33.33C12.59 33.33 13.33 34.07 13.33 35C13.33 35.92 12.59 36.66 11.66 36.66L1.66 36.66C0.74 36.66 0 35.92 0 35C0 34.07 0.74 33.33 1.66 33.33ZM1.66 20L11.66 20C12.59 20 13.33 20.74 13.33 21.66C13.33 22.59 12.59 23.33 11.66 23.33L1.66 23.33C0.74 23.33 0 22.59 0 21.66C0 20.74 0.74 20 1.66 20ZM1.66 6.66L11.66 6.66C12.59 6.66 13.33 7.41 13.33 8.33C13.33 9.25 12.59 10 11.66 10L1.66 10C0.74 10 0 9.25 0 8.33C0 7.41 0.74 6.66 1.66 6.66ZM81.66 43.33C77.08 43.33 73.33 47.08 73.33 51.66C73.33 56.25 77.08 60 81.66 60C86.25 60 90 56.25 90 51.66C90 47.08 86.25 43.33 81.66 43.33ZM81.66 46.66C84.44 46.66 86.66 48.88 86.66 51.66C86.66 54.44 84.44 56.66 81.66 56.66C78.88 56.66 76.66 54.44 76.66 51.66C76.66 48.88 78.88 46.66 81.66 46.66ZM38.33 43.33C33.75 43.33 30 47.08 30 51.66C30 56.25 33.75 60 38.33 60C42.91 60 46.66 56.25 46.66 51.66C46.66 47.08 42.91 43.33 38.33 43.33ZM38.33 46.66C41.11 46.66 43.33 48.88 43.33 51.66C43.33 54.44 41.11 56.66 38.33 56.66C35.55 56.66 33.33 54.44 33.33 51.66C33.33 48.88 35.55 46.66 38.33 46.66ZM21.66 0C18.92 0 16.66 2.26 16.66 5L16.66 41.66C16.66 44.4 18.92 46.66 21.66 46.66L28.33 46.66C30.58 46.7 30.58 43.3 28.33 43.33L21.66 43.33C20.71 43.33 20 42.62 20 41.66L20 5C20 4.04 20.71 3.33 21.66 3.33L65 3.33C65.95 3.33 66.66 4.04 66.66 5L66.66 43.33L48.33 43.33C46.13 43.33 46.17 46.7 48.33 46.66L71.66 46.66C73.86 46.66 73.84 43.33 71.66 43.33L70 43.33L70 13.33L84.09 13.33L96.66 32.98L96.66 41.66C96.66 42.62 95.95 43.33 95 43.33L91.66 43.33C89.48 43.33 89.48 46.66 91.66 46.66L95 46.66C97.74 46.66 100 44.4 100 41.66L100 32.5C100 32.18 99.9 31.86 99.74 31.6L86.4 10.76C86.1 10.29 85.57 10 85 10L70 10L70 5C70 2.26 67.74 0 65 0L21.66 0Z" fill="#3B8ED7" fill-opacity="1.000000" fill-rule="nonzero"/>
</svg>
