<svg width="21" height="20" viewBox="0 0 21 20" fill="none" xmlns="http://www.w3.org/2000/svg">
<path d="M13.8335 6.66683L17.1668 3.3335M13.0002 3.3335L13.0002 6.76359C13.0002 7.17039 13.3299 7.50016 13.7367 7.50016L17.1668 7.50016M10.151 11.1827C9.23609 10.2677 8.51366 9.23324 7.98371 8.12946C7.93813 8.03452 7.91534 7.98705 7.89783 7.92698C7.8356 7.71351 7.8803 7.45138 8.00975 7.2706C8.04617 7.21972 8.08969 7.1762 8.17674 7.08916C8.44293 6.82296 8.57603 6.68986 8.66305 6.55602C8.99122 6.05128 8.99122 5.40058 8.66305 4.89584C8.57603 4.762 8.44293 4.6289 8.17673 4.3627L8.02836 4.21432C7.6237 3.80967 7.42138 3.60734 7.20408 3.49743C6.77192 3.27885 6.26157 3.27885 5.82941 3.49743C5.61212 3.60734 5.40979 3.80967 5.00514 4.21432L4.88511 4.33435C4.48184 4.73762 4.28021 4.93925 4.12621 5.21339C3.95533 5.51758 3.83246 5.99004 3.8335 6.33894C3.83444 6.65337 3.89543 6.86826 4.01742 7.29805C4.67298 9.60775 5.9099 11.7872 7.72817 13.6055C9.54643 15.4238 11.7259 16.6607 14.0356 17.3162C14.4654 17.4382 14.6803 17.4992 14.9947 17.5002C15.3436 17.5012 15.8161 17.3783 16.1203 17.2075C16.3944 17.0535 16.596 16.8518 16.9993 16.4486L17.1193 16.3285C17.524 15.9239 17.7263 15.7215 17.8362 15.5042C18.0548 15.0721 18.0548 14.5617 17.8362 14.1296C17.7263 13.9123 17.524 13.71 17.1193 13.3053L16.971 13.1569C16.7048 12.8907 16.5717 12.7576 16.4378 12.6706C15.9331 12.3424 15.2824 12.3424 14.7776 12.6706C14.6438 12.7576 14.5107 12.8907 14.2445 13.1569C14.1575 13.244 14.1139 13.2875 14.0631 13.3239C13.8823 13.4534 13.6202 13.4981 13.4067 13.4358C13.3466 13.4183 13.2991 13.3955 13.2042 13.3499C12.1004 12.82 11.0659 12.0976 10.151 11.1827Z" stroke="#3B8ED7" stroke-width="1.375" stroke-linecap="round"/>
</svg>
