<svg width="64" height="64" viewBox="0 0 64 64" fill="none" xmlns="http://www.w3.org/2000/svg">
<path d="M31.7775 63.5C40.2603 63.5 48.233 60.1979 54.2409 54.1976C59.8143 48.6313 63.1016 41.2347 63.4983 33.3664C63.5361 32.5928 62.9315 31.9135 62.1569 31.8758C61.3823 31.838 60.7022 32.4418 60.6644 33.2155C60.3055 40.3668 57.3015 47.103 52.2194 52.1787C46.7594 57.6318 39.4857 60.6508 31.7586 60.6508C24.0315 60.6508 16.7578 57.6507 11.2978 52.1787C0.0188902 40.914 0.0188902 22.5734 11.2978 11.3087C20.9142 1.70445 35.8772 0.100591 47.2506 7.32737L44.0577 11.2332L53.2207 10.3087L52.295 1.15725L49.0643 5.11971C36.5385 -3.03164 19.9318 -1.31457 9.2952 9.3086C-3.0984 21.6866 -3.0984 41.8008 9.2952 54.1788C15.322 60.1979 23.2947 63.5 31.7775 63.5Z" fill="#3B8ED7"/>
<path d="M46.7595 25.2339C46.7595 25.2151 46.7595 25.1962 46.7406 25.1962C46.7406 25.1585 46.7217 25.1396 46.7217 25.1019C46.7217 25.083 46.7028 25.0452 46.7028 25.0264C46.7028 25.0075 46.6839 24.9886 46.6839 24.9698C46.6461 24.8754 46.6083 24.7999 46.5516 24.7245L40.5438 15.9127C40.2793 15.5165 39.8447 15.29 39.3724 15.29H24.1449C23.6726 15.29 23.2381 15.5165 22.9736 15.9127L16.9657 24.7056C16.909 24.7811 16.8712 24.8754 16.8335 24.9509C16.8335 24.9698 16.8146 24.9886 16.8146 25.0075C16.7957 25.0264 16.7957 25.0641 16.7957 25.083C16.7957 25.1207 16.7768 25.1396 16.7768 25.1773C16.7768 25.1962 16.7768 25.2151 16.7579 25.2151C16.739 25.3094 16.7201 25.4038 16.7201 25.4981V46.8011C16.7201 47.5747 17.3624 48.2162 18.137 48.2162H45.3614C46.136 48.2162 46.7784 47.5747 46.7784 46.8011V25.517C46.7784 25.4038 46.7784 25.3094 46.7595 25.2339ZM24.9006 18.1204H38.6167L42.6786 24.0829H20.8198L24.9006 18.1204ZM43.9445 45.4048H19.5729V26.9321H43.9634V45.4048H43.9445Z" fill="#3B8ED7"/>
</svg>
