<svg width="12.000000" height="12.000000" viewBox="0 0 12 12" fill="none" xmlns="http://www.w3.org/2000/svg" xmlns:xlink="http://www.w3.org/1999/xlink">
	<desc>
			Created with Pixso.
	</desc>
	<defs>
		<clipPath id="clip6_11075">
			<rect id="Right" rx="-0.500000" width="11.000000" height="11.000000" transform="translate(0.500000 0.500000)" fill="white" fill-opacity="0"/>
		</clipPath>
	</defs>
	<g clip-path="url(#clip6_11075)">
		<path id="Vector" d="M9.39 5.66L3.36 0.94C3.34 0.93 3.32 0.92 3.3 0.92C3.28 0.92 3.26 0.92 3.24 0.93C3.22 0.94 3.21 0.95 3.2 0.97C3.19 0.99 3.18 1.01 3.18 1.03L3.18 2.06C3.18 2.13 3.21 2.19 3.26 2.23L8.09 6L3.26 9.76C3.21 9.8 3.18 9.86 3.18 9.93L3.18 10.96C3.18 11.05 3.29 11.1 3.36 11.05L9.39 6.33C9.44 6.29 9.49 6.24 9.51 6.18C9.54 6.12 9.56 6.06 9.56 6C9.56 5.93 9.54 5.87 9.51 5.81C9.49 5.75 9.44 5.7 9.39 5.66Z" fill="#000000" fill-opacity="0.850000" fill-rule="nonzero"/>
	</g>
</svg>
