<svg width="67" height="62" viewBox="0 0 67 62" fill="none" xmlns="http://www.w3.org/2000/svg">
<path d="M61.6641 14.2227H44.2031C46.918 12.2695 48.5977 9.59375 48.8125 7.01562C49.0469 4.30078 47.5234 1.09766 42.6211 0.277343C42.0742 0.179687 41.5273 0.140625 41 0.140625C38.8711 0.140625 37.1133 0.921876 35.7852 2.44531C34.5352 3.87109 33.8516 5.80469 33.4805 7.75781C33.1094 5.80469 32.4063 3.85156 31.1758 2.44531C29.8672 0.921876 28.1094 0.140625 25.9805 0.140625C25.4727 0.140625 24.9258 0.179687 24.3594 0.277343C19.457 1.09766 17.9531 4.30078 18.168 7.01562C18.3828 9.59375 20.082 12.2695 22.7773 14.2227H5.31641C2.875 14.2227 0.902344 16.1953 0.902344 18.6367V21.4297C0.902344 23.8711 2.875 25.8438 5.31641 25.8438H6.60547V56.3906C6.60547 59.418 9.06641 61.8789 12.0938 61.8789H54.8867C57.9141 61.8789 60.375 59.418 60.375 56.3906V25.8438H61.6641C64.1055 25.8438 66.0781 23.8711 66.0781 21.4297V18.6367C66.0781 16.1953 64.1055 14.2227 61.6641 14.2227ZM38.0117 4.35937C38.7734 3.48047 39.75 3.07031 41.0195 3.07031C41.3711 3.07031 41.7617 3.10938 42.1523 3.16797C43.6367 3.42188 46.1172 4.22266 45.9023 6.78125C45.668 9.61328 42.0742 13.6367 36.0977 14.1641C35.9023 11.4102 36.0391 6.64453 38.0117 4.35937ZM21.0977 6.78125C20.8828 4.22266 23.3633 3.42188 24.8477 3.16797C25.2383 3.10938 25.6289 3.07031 25.9805 3.07031C27.25 3.07031 28.2266 3.5 28.9883 4.35937C30.9609 6.625 31.0977 11.3906 30.9023 14.1641C24.9258 13.6367 21.332 9.61328 21.0977 6.78125ZM57.4453 56.3711C57.4453 57.7773 56.293 58.9297 54.8867 58.9297H12.0938C10.6875 58.9297 9.53516 57.7773 9.53516 56.3711V25.8438H57.4258V56.3711H57.4453ZM63.1484 21.4297C63.1484 22.25 62.4844 22.9141 61.6641 22.9141H58.9102H8.08984H5.33594C4.51563 22.9141 3.85156 22.25 3.85156 21.4297V18.6367C3.85156 17.8164 4.51563 17.1523 5.33594 17.1523H61.6641C62.4844 17.1523 63.1484 17.8164 63.1484 18.6367V21.4297Z" fill="#3B8ED7"/>
<path d="M25.8438 39.9648C28.7344 39.9648 31.0781 37.6211 31.0781 34.7305C31.0781 31.8398 28.7344 29.4961 25.8438 29.4961C22.9531 29.4961 20.6094 31.8398 20.6094 34.7305C20.6094 37.6211 22.9531 39.9648 25.8438 39.9648ZM25.8438 32.4258C27.1133 32.4258 28.1484 33.4609 28.1484 34.7305C28.1484 36 27.1133 37.0352 25.8438 37.0352C24.5742 37.0352 23.5391 36 23.5391 34.7305C23.5391 33.4609 24.5742 32.4258 25.8438 32.4258Z" fill="#3B8ED7"/>
<path d="M41.1563 44.7891C38.2656 44.7891 35.9219 47.1328 35.9219 50.0234C35.9219 52.9141 38.2656 55.2578 41.1563 55.2578C44.0469 55.2578 46.3906 52.9141 46.3906 50.0234C46.3906 47.1328 44.0469 44.7891 41.1563 44.7891ZM41.1563 52.3477C39.8867 52.3477 38.8516 51.3125 38.8516 50.043C38.8516 48.7734 39.8867 47.7383 41.1563 47.7383C42.4258 47.7383 43.4609 48.7734 43.4609 50.043C43.4609 51.3125 42.4258 52.3477 41.1563 52.3477Z" fill="#3B8ED7"/>
<path d="M22.0547 53.832C22.3477 54.125 22.7188 54.2617 23.0898 54.2617C23.4609 54.2617 23.832 54.125 24.125 53.832L44.9453 33.0117C45.5117 32.4453 45.5117 31.5078 44.9453 30.9414C44.3789 30.375 43.4414 30.375 42.875 30.9414L22.0547 51.7617C21.4688 52.3281 21.4688 53.2656 22.0547 53.832Z" fill="#3B8ED7"/>
</svg>
