<svg width="35" height="36" viewBox="0 0 35 36" fill="none" xmlns="http://www.w3.org/2000/svg">
<g clip-path="url(#clip0_11_71)">
<path d="M17.5 35.5C27.165 35.5 35 27.665 35 18C35 8.33502 27.165 0.5 17.5 0.5C7.83502 0.5 0 8.33502 0 18C0 27.665 7.83502 35.5 17.5 35.5Z" fill="#101010"/>
<path fill-rule="evenodd" clip-rule="evenodd" d="M7.9215 17.8153C13.0231 15.5926 16.425 14.1272 18.1271 13.4193C22.987 11.3979 23.9969 11.0467 24.6551 11.0351C24.7998 11.0326 25.1235 11.0685 25.3332 11.2386C25.6442 11.491 25.646 12.0388 25.6115 12.4014C25.3481 15.1686 24.2085 21.8838 23.6288 24.983C23.3834 26.2944 22.9004 26.7342 22.4328 26.7772C21.4166 26.8707 20.6449 26.1056 19.6606 25.4604C18.1204 24.4507 17.2502 23.8222 15.7551 22.837C14.0274 21.6984 15.1474 21.0727 16.1321 20.05C16.3898 19.7823 20.8674 15.7095 20.9541 15.3401C20.965 15.2938 20.975 15.1216 20.8727 15.0307C20.7703 14.9397 20.6193 14.9708 20.5104 14.9955C20.3559 15.0306 17.8953 16.6569 13.1288 19.8745C12.4303 20.3541 11.7978 20.5877 11.231 20.5755C10.6061 20.562 9.40422 20.2222 8.51069 19.9318C7.41475 19.5755 6.54372 19.3871 6.6196 18.7822C6.65911 18.467 7.09305 18.1447 7.9215 17.8153Z" fill="white"/>
</g>
<defs>
<clipPath id="clip0_11_71">
<rect width="35" height="35" fill="white" transform="translate(0 0.5)"/>
</clipPath>
</defs>
</svg>
