<svg width="35" height="35" viewBox="0 0 35 35" fill="none" xmlns="http://www.w3.org/2000/svg">
<g clip-path="url(#clip0_16_570)">
<path d="M17.5 35C27.165 35 35 27.165 35 17.5C35 7.83502 27.165 0 17.5 0C7.83502 0 0 7.83502 0 17.5C0 27.165 7.83502 35 17.5 35Z" fill="white"/>
<path fill-rule="evenodd" clip-rule="evenodd" d="M7.92175 17.3154C13.0233 15.0927 16.4252 13.6274 18.1273 12.9194C22.9873 10.8981 23.9971 10.5469 24.6553 10.5353C24.8001 10.5327 25.1238 10.5686 25.3334 10.7388C25.6445 10.9912 25.6462 11.539 25.6117 11.9016C25.3483 14.6688 24.2088 21.3839 23.629 24.4832C23.3837 25.7946 22.9007 26.2344 22.4331 26.2773C21.4168 26.3709 20.6451 25.6057 19.6608 24.9605C18.1206 23.9509 17.2505 23.3224 15.7554 22.3372C14.0276 21.1986 15.1477 20.5728 16.1323 19.5501C16.39 19.2825 20.8676 15.2097 20.9543 14.8402C20.9652 14.794 20.9752 14.6217 20.8729 14.5308C20.7706 14.4399 20.6196 14.4709 20.5106 14.4957C20.3561 14.5307 17.8956 16.1571 13.129 19.3746C12.4306 19.8542 11.798 20.0879 11.2312 20.0756C10.6064 20.0622 9.40446 19.7224 8.51094 19.4319C7.415 19.0757 6.54396 18.8873 6.61984 18.2823C6.65935 17.9671 7.0933 17.6449 7.92175 17.3154Z" fill="#101010"/>
</g>
<defs>
<clipPath id="clip0_16_570">
<rect width="35" height="35" fill="white"/>
</clipPath>
</defs>
</svg>
